<?xml version="1.0" standalone="no"?>
<!DOCTYPE svg PUBLIC "-//W3C//DTD SVG 20010904//EN"
 "http://www.w3.org/TR/2001/REC-SVG-20010904/DTD/svg10.dtd">
<svg version="1.0" xmlns="http://www.w3.org/2000/svg"
 width="120.000000pt" height="120.000000pt" viewBox="0 0 120.000000 120.000000"
 preserveAspectRatio="xMidYMid meet">

<g transform="translate(0.000000,120.000000) scale(0.100000,-0.100000)"
fill="#000000" stroke="none">
<path d="M208 1156 c-61 -16 -111 -56 -145 -114 l-28 -47 0 -292 c0 -160 3
-294 6 -298 4 -3 31 5 62 19 30 13 58 22 61 18 3 -3 6 19 7 49 5 375 23 443
134 502 38 21 53 22 295 22 242 0 257 -1 295 -22 46 -24 75 -54 101 -103 17
-32 19 -60 19 -290 0 -244 -1 -257 -22 -296 -35 -65 -116 -123 -177 -125 l-21
0 21 -9 c12 -5 37 -35 55 -67 40 -71 45 -74 89 -67 86 15 144 57 183 129 21
39 22 49 22 435 0 387 0 396 -22 436 -30 57 -83 100 -145 119 -68 20 -715 21
-790 1z"/>
<path d="M341 918 c-73 -36 -81 -66 -79 -298 0 -107 3 -184 5 -170 4 25 6 26
70 24 56 -2 70 -7 96 -31 l30 -28 -30 40 c-76 100 -70 210 16 296 91 92 211
92 302 0 136 -135 54 -351 -141 -372 l-55 -6 47 -2 c42 -1 53 -6 98 -50 l52
-50 -29 -5 c-15 -2 5 -3 44 -1 88 5 126 24 153 80 18 37 20 62 20 256 0 190
-3 219 -20 257 -15 33 -29 47 -62 62 -38 17 -67 20 -258 20 -201 0 -218 -1
-259 -22z m519 -58 c11 -11 20 -27 20 -35 0 -8 -9 -24 -20 -35 -11 -11 -27
-20 -35 -20 -8 0 -24 9 -35 20 -11 11 -20 27 -20 35 0 8 9 24 20 35 11 11 27
20 35 20 8 0 24 -9 35 -20z"/>
<path d="M544 726 c-71 -31 -98 -106 -66 -179 36 -81 136 -107 206 -54 83 64
66 193 -30 233 -41 17 -70 17 -110 0z"/>
</g>
</svg>
