<?xml version="1.0" standalone="no"?>
<!DOCTYPE svg PUBLIC "-//W3C//DTD SVG 20010904//EN"
 "http://www.w3.org/TR/2001/REC-SVG-20010904/DTD/svg10.dtd">
<svg version="1.0" xmlns="http://www.w3.org/2000/svg"
 width="120.000000pt" height="120.000000pt" viewBox="0 0 120.000000 120.000000"
 preserveAspectRatio="xMidYMid meet">

<g transform="translate(0.000000,120.000000) scale(0.100000,-0.100000)"
fill="#000000" stroke="none">
<path d="M123 1164 c-42 -15 -61 -30 -79 -65 -12 -23 -14 -110 -14 -500 0
-452 1 -473 20 -504 42 -68 32 -66 562 -63 l478 3 37 38 38 37 3 476 c3 528 3
523 -63 564 -32 20 -50 20 -491 23 -321 1 -468 -1 -491 -9z m560 -159 c37 -8
90 -26 118 -42 64 -34 139 -116 176 -191 26 -52 28 -66 28 -172 0 -106 -2
-120 -28 -172 -132 -268 -475 -326 -676 -113 -93 98 -135 230 -112 354 36 194
205 340 406 350 11 0 51 -6 88 -14z"/>
<path d="M489 917 c-227 -85 -297 -365 -136 -544 20 -21 60 -52 89 -69 49 -27
61 -29 153 -29 117 0 171 20 240 90 69 68 90 124 90 235 0 80 -4 103 -25 145
-31 64 -92 124 -155 155 -60 30 -197 39 -256 17z m288 -131 l28 -24 0 -162 0
-162 -28 -24 c-27 -23 -34 -24 -178 -24 l-151 0 -29 29 -29 29 0 152 0 152 29
29 29 29 151 0 c144 0 151 -1 178 -24z"/>
<path d="M707 743 c-3 -5 -2 -15 3 -22 10 -17 43 -6 38 12 -6 15 -34 22 -41
10z"/>
<path d="M580 703 c-41 -13 -60 -29 -75 -60 -20 -42 -13 -83 21 -116 31 -31
70 -39 110 -22 41 17 64 51 64 95 0 45 -23 78 -66 96 -18 8 -35 14 -36 13 -2
0 -10 -3 -18 -6z"/>
</g>
</svg>
