<?xml version="1.0" standalone="no"?>
<!DOCTYPE svg PUBLIC "-//W3C//DTD SVG 20010904//EN"
 "http://www.w3.org/TR/2001/REC-SVG-20010904/DTD/svg10.dtd">
<svg version="1.0" xmlns="http://www.w3.org/2000/svg"
 width="120.000000pt" height="120.000000pt" viewBox="0 0 120.000000 120.000000"
 preserveAspectRatio="xMidYMid meet">

<g transform="translate(0.000000,120.000000) scale(0.100000,-0.100000)"
fill="#000000" stroke="none">
<path d="M311 1154 c-45 -8 -99 -22 -118 -31 -49 -23 -99 -77 -117 -127 -63
-171 -60 -680 5 -807 20 -41 79 -96 118 -110 60 -24 197 -41 361 -46 250 -8
410 16 483 71 86 66 115 171 124 453 9 271 -18 431 -84 504 -47 51 -75 66
-170 85 -110 23 -487 28 -602 8z m461 -208 c78 -37 143 -103 181 -184 29 -60
32 -77 32 -157 0 -76 -4 -99 -27 -147 -53 -115 -158 -196 -282 -219 -68 -12
-127 -6 -204 23 l-54 20 -58 -26 c-60 -27 -80 -32 -80 -18 0 5 9 35 20 68 l20
58 -37 75 c-36 70 -38 80 -38 165 0 74 4 100 23 141 51 110 120 177 224 216
78 29 203 22 280 -15z"/>
<path d="M498 935 c-208 -78 -293 -335 -173 -517 26 -39 26 -39 10 -89 -10
-28 -15 -52 -13 -54 2 -2 27 7 56 20 28 13 54 20 57 15 3 -6 38 -19 77 -31
129 -39 263 -4 354 93 70 75 89 125 89 238 0 89 -2 99 -34 158 -38 70 -90 120
-160 154 -57 29 -204 36 -263 13z m38 -153 c5 -4 16 -22 23 -40 12 -27 12 -37
1 -58 -12 -22 -11 -28 16 -61 50 -61 80 -79 113 -67 36 14 101 -9 101 -37 0
-24 -37 -49 -73 -49 -57 0 -147 64 -202 144 -47 69 -53 106 -25 145 22 32 28
35 46 23z"/>
</g>
</svg>
